<?xml version="1.0" encoding="UTF-8"?>
<svg id="Layer_1" data-name="Layer 1" xmlns="http://www.w3.org/2000/svg" viewBox="0 0 1080 1080">
  <defs>
    <style>
      .cls-1 {
        fill: #7aceb5;
      }
    </style>
  </defs>
  <path class="cls-1" d="M1072.47,586.87c0,9.59-.85,19.2-2.59,28.78-14.75,81.75-91.87,143.34-191.94,153.23l-26.11,2.59,4.07,25.95c8.36,53.08,1.24,106.38-20.09,150.06-21.32,43.71-54.62,74.73-96.33,89.74-78.09,28.07-169.96-7.99-228.56-89.79l-15.3-21.35-20.39,16.53c-41.77,33.77-91.43,54.24-139.86,57.6-48.48,3.39-91.95-10-125.77-38.62-63.37-53.68-78.09-151.36-36.62-243.05l10.81-23.94-24.46-9.42c-50.1-19.31-92.64-52.14-119.77-92.47-27.16-40.33-37.34-84.73-29.47-128.38,14.75-81.72,91.9-143.31,191.97-153.23l26.11-2.59-4.1-25.92c-8.34-53.11-1.21-106.4,20.09-150.06,21.32-43.71,54.62-74.76,96.33-89.74,78.09-28.1,169.96,7.99,228.56,89.79l15.3,21.35,20.39-16.53c41.74-33.8,91.4-54.24,139.83-57.6,48.48-3.39,91.98,10,125.8,38.64,63.37,53.66,78.06,151.3,36.59,243l-10.81,23.94,24.49,9.42c50.1,19.34,92.64,52.14,119.77,92.47,21.19,31.48,32.05,65.45,32.05,99.6Z"/>
</svg>