<?xml version="1.0" encoding="UTF-8"?>
<svg id="Layer_1" data-name="Layer 1" xmlns="http://www.w3.org/2000/svg" viewBox="0 0 400 100">
  <defs>
    <style>
      .cls-1 {
        fill: #ffd182;
      }
    </style>
  </defs>
  <g>
    <path class="cls-1" d="M113.57,40.5c-1.02-1.33-2.32-2.35-3.88-3.07-1.57-.72-3.19-1.07-4.85-1.07-2.04,0-3.89.38-5.54,1.15-1.65.77-3.07,1.81-4.24,3.14-1.18,1.33-2.09,2.89-2.73,4.67-.65,1.79-.97,3.7-.97,5.75,0,1.91.31,3.71.92,5.42.61,1.7,1.5,3.2,2.66,4.5,1.16,1.3,2.57,2.32,4.24,3.07,1.67.75,3.56,1.12,5.67,1.12s3.9-.43,5.47-1.28c1.57-.85,2.89-2.04,3.98-3.58l4.14,3.12c-.27.38-.75.91-1.43,1.61-.68.7-1.58,1.4-2.71,2.09-1.12.7-2.48,1.31-4.06,1.84-1.58.53-3.41.79-5.49.79-2.86,0-5.44-.55-7.74-1.63-2.3-1.09-4.26-2.52-5.88-4.29-1.62-1.77-2.85-3.77-3.7-6-.85-2.23-1.28-4.49-1.28-6.77,0-2.79.46-5.37,1.38-7.74.92-2.37,2.2-4.41,3.86-6.13,1.65-1.72,3.64-3.06,5.95-4.01,2.32-.95,4.87-1.43,7.66-1.43,2.38,0,4.73.46,7.02,1.38,2.3.92,4.18,2.33,5.65,4.24l-4.09,3.12Z"/>
    <path class="cls-1" d="M123.27,47.6c1.29-1.19,2.79-2.09,4.5-2.68,1.7-.6,3.41-.89,5.11-.89s3.3.22,4.57.66c1.28.44,2.32,1.04,3.14,1.79.82.75,1.42,1.61,1.81,2.58.39.97.59,1.98.59,3.04v12.36c0,.85.02,1.63.05,2.35.03.72.08,1.4.15,2.04h-4.09c-.1-1.23-.15-2.45-.15-3.68h-.1c-1.02,1.57-2.23,2.67-3.63,3.32-1.4.65-3.01.97-4.85.97-1.12,0-2.2-.15-3.22-.46-1.02-.31-1.92-.77-2.68-1.38-.77-.61-1.37-1.37-1.81-2.27-.44-.9-.66-1.95-.66-3.14,0-1.57.35-2.88,1.05-3.93.7-1.06,1.65-1.92,2.86-2.58,1.21-.66,2.62-1.14,4.24-1.43,1.62-.29,3.35-.43,5.19-.43h3.37v-1.02c0-.61-.12-1.23-.36-1.84-.24-.61-.6-1.17-1.07-1.66-.48-.49-1.07-.89-1.79-1.17-.72-.29-1.57-.43-2.55-.43-.89,0-1.66.09-2.32.26-.66.17-1.27.38-1.81.64-.55.26-1.04.55-1.48.89-.44.34-.87.66-1.28.97l-2.76-2.86ZM136.25,57.2c-1.09,0-2.21.06-3.35.18-1.14.12-2.18.35-3.12.69-.94.34-1.7.82-2.3,1.43-.6.61-.89,1.4-.89,2.35,0,1.4.47,2.4,1.4,3.01.94.61,2.2.92,3.81.92,1.26,0,2.33-.21,3.22-.64.89-.43,1.6-.98,2.15-1.66.54-.68.94-1.44,1.17-2.27.24-.83.36-1.66.36-2.48v-1.53h-2.45Z"/>
    <path class="cls-1" d="M149.69,44.64h4.6v3.73h.1c.31-.65.72-1.23,1.23-1.76.51-.53,1.08-.98,1.71-1.35.63-.37,1.32-.67,2.07-.89.75-.22,1.5-.33,2.25-.33s1.43.1,2.04.31l-.2,4.96c-.38-.1-.75-.19-1.12-.26-.38-.07-.75-.1-1.12-.1-2.25,0-3.97.63-5.16,1.89-1.19,1.26-1.79,3.22-1.79,5.88v12.16h-4.6v-24.22Z"/>
    <path class="cls-1" d="M168.59,30.23h4.6v17.88h.1c.82-1.26,1.99-2.26,3.53-2.99,1.53-.73,3.17-1.1,4.9-1.1,1.87,0,3.57.32,5.08.97,1.52.65,2.81,1.54,3.88,2.68,1.07,1.14,1.9,2.49,2.48,4.04.58,1.55.87,3.23.87,5.03s-.29,3.47-.87,5.01c-.58,1.53-1.4,2.88-2.48,4.04-1.07,1.16-2.37,2.06-3.88,2.71-1.52.65-3.21.97-5.08.97-1.63,0-3.23-.36-4.78-1.07-1.55-.71-2.77-1.72-3.65-3.01h-.1v3.47h-4.6V30.23ZM181.16,65.17c1.23,0,2.33-.21,3.32-.64.99-.43,1.82-1,2.5-1.74.68-.73,1.21-1.62,1.58-2.66.37-1.04.56-2.17.56-3.4s-.19-2.36-.56-3.4c-.38-1.04-.9-1.92-1.58-2.66-.68-.73-1.52-1.31-2.5-1.74-.99-.43-2.09-.64-3.32-.64s-2.33.21-3.32.64c-.99.43-1.82,1.01-2.5,1.74-.68.73-1.21,1.62-1.58,2.66-.38,1.04-.56,2.17-.56,3.4s.19,2.36.56,3.4c.37,1.04.9,1.92,1.58,2.66.68.73,1.52,1.31,2.5,1.74.99.43,2.09.64,3.32.64Z"/>
    <path class="cls-1" d="M198.63,56.74c0-1.77.33-3.42,1-4.96s1.58-2.88,2.73-4.04,2.52-2.07,4.09-2.73c1.57-.66,3.25-1,5.06-1s3.49.33,5.06,1c1.57.66,2.93,1.58,4.09,2.73,1.16,1.16,2.07,2.5,2.73,4.04s1,3.19,1,4.96-.33,3.43-1,4.98c-.66,1.55-1.58,2.9-2.73,4.04-1.16,1.14-2.52,2.04-4.09,2.71s-3.25,1-5.06,1-3.49-.33-5.06-1c-1.57-.66-2.93-1.57-4.09-2.71-1.16-1.14-2.07-2.49-2.73-4.04-.66-1.55-1-3.21-1-4.98ZM203.54,56.74c0,1.23.19,2.36.56,3.4.37,1.04.9,1.92,1.58,2.66.68.73,1.52,1.31,2.5,1.74.99.43,2.09.64,3.32.64s2.33-.21,3.32-.64c.99-.43,1.82-1,2.5-1.74.68-.73,1.21-1.62,1.58-2.66.37-1.04.56-2.17.56-3.4s-.19-2.36-.56-3.4c-.38-1.04-.9-1.92-1.58-2.66-.68-.73-1.52-1.31-2.5-1.74-.99-.43-2.09-.64-3.32-.64s-2.33.21-3.32.64c-.99.43-1.82,1.01-2.5,1.74-.68.73-1.21,1.62-1.58,2.66-.38,1.04-.56,2.17-.56,3.4Z"/>
    <path class="cls-1" d="M230.15,44.64h4.6v3.73h.1c.58-1.29,1.58-2.34,3.01-3.14,1.43-.8,3.08-1.2,4.96-1.2,1.16,0,2.27.18,3.35.54,1.07.36,2.01.91,2.81,1.66.8.75,1.44,1.71,1.92,2.89.48,1.18.71,2.56.71,4.16v15.58h-4.6v-14.31c0-1.12-.15-2.09-.46-2.89-.31-.8-.72-1.45-1.23-1.94-.51-.49-1.1-.85-1.76-1.07-.66-.22-1.35-.33-2.07-.33-.95,0-1.84.15-2.66.46-.82.31-1.53.79-2.15,1.46-.61.66-1.09,1.51-1.43,2.53-.34,1.02-.51,2.23-.51,3.63v12.47h-4.6v-24.22Z"/>
    <path class="cls-1" d="M284.92,40.5c-1.02-1.33-2.32-2.35-3.88-3.07-1.57-.72-3.19-1.07-4.85-1.07-2.04,0-3.89.38-5.54,1.15-1.65.77-3.07,1.81-4.24,3.14-1.18,1.33-2.09,2.89-2.73,4.67-.65,1.79-.97,3.7-.97,5.75,0,1.91.31,3.71.92,5.42.61,1.7,1.5,3.2,2.66,4.5,1.16,1.3,2.57,2.32,4.24,3.07,1.67.75,3.56,1.12,5.67,1.12s3.9-.43,5.47-1.28c1.57-.85,2.89-2.04,3.98-3.58l4.14,3.12c-.27.38-.75.91-1.43,1.61-.68.7-1.58,1.4-2.71,2.09-1.12.7-2.48,1.31-4.06,1.84-1.58.53-3.41.79-5.49.79-2.86,0-5.44-.55-7.74-1.63s-4.26-2.52-5.88-4.29c-1.62-1.77-2.85-3.77-3.7-6-.85-2.23-1.28-4.49-1.28-6.77,0-2.79.46-5.37,1.38-7.74.92-2.37,2.2-4.41,3.86-6.13,1.65-1.72,3.64-3.06,5.95-4.01,2.32-.95,4.87-1.43,7.66-1.43,2.38,0,4.73.46,7.02,1.38,2.3.92,4.18,2.33,5.65,4.24l-4.09,3.12Z"/>
    <path class="cls-1" d="M294.52,30.23h4.6v18.14h.1c.58-1.29,1.58-2.34,3.01-3.14,1.43-.8,3.08-1.2,4.96-1.2,1.16,0,2.27.18,3.35.54,1.07.36,2.01.91,2.81,1.66.8.75,1.44,1.71,1.92,2.89.48,1.18.71,2.56.71,4.16v15.58h-4.6v-14.31c0-1.12-.15-2.09-.46-2.89-.31-.8-.72-1.45-1.23-1.94-.51-.49-1.1-.85-1.76-1.07-.66-.22-1.35-.33-2.07-.33-.95,0-1.84.15-2.66.46-.82.31-1.53.79-2.15,1.46-.61.66-1.09,1.51-1.43,2.53-.34,1.02-.51,2.23-.51,3.63v12.47h-4.6V30.23Z"/>
    <path class="cls-1" d="M323.03,47.6c1.29-1.19,2.79-2.09,4.5-2.68,1.7-.6,3.41-.89,5.11-.89s3.3.22,4.57.66c1.28.44,2.32,1.04,3.14,1.79.82.75,1.42,1.61,1.81,2.58.39.97.59,1.98.59,3.04v12.36c0,.85.02,1.63.05,2.35.03.72.08,1.4.15,2.04h-4.09c-.1-1.23-.15-2.45-.15-3.68h-.1c-1.02,1.57-2.23,2.67-3.63,3.32-1.4.65-3.01.97-4.85.97-1.12,0-2.2-.15-3.22-.46-1.02-.31-1.92-.77-2.68-1.38-.77-.61-1.37-1.37-1.81-2.27-.44-.9-.66-1.95-.66-3.14,0-1.57.35-2.88,1.05-3.93.7-1.06,1.65-1.92,2.86-2.58,1.21-.66,2.62-1.14,4.24-1.43,1.62-.29,3.35-.43,5.19-.43h3.37v-1.02c0-.61-.12-1.23-.36-1.84-.24-.61-.6-1.17-1.07-1.66-.48-.49-1.07-.89-1.79-1.17-.72-.29-1.57-.43-2.55-.43-.89,0-1.66.09-2.32.26-.66.17-1.27.38-1.81.64-.55.26-1.04.55-1.48.89-.44.34-.87.66-1.28.97l-2.76-2.86ZM336.01,57.2c-1.09,0-2.21.06-3.35.18-1.14.12-2.18.35-3.12.69-.94.34-1.7.82-2.3,1.43-.6.61-.89,1.4-.89,2.35,0,1.4.47,2.4,1.4,3.01.94.61,2.2.92,3.81.92,1.26,0,2.33-.21,3.22-.64.89-.43,1.6-.98,2.15-1.66.54-.68.94-1.44,1.17-2.27.24-.83.36-1.66.36-2.48v-1.53h-2.45Z"/>
    <path class="cls-1" d="M348.73,35.95c0-.92.33-1.71,1-2.38.66-.66,1.46-1,2.38-1s1.71.33,2.38,1c.66.66,1,1.46,1,2.38s-.33,1.71-1,2.38c-.66.66-1.46,1-2.38,1s-1.71-.33-2.38-1c-.66-.66-1-1.46-1-2.38ZM349.8,44.64h4.6v24.22h-4.6v-24.22Z"/>
    <path class="cls-1" d="M361.71,44.64h4.6v3.73h.1c.58-1.29,1.58-2.34,3.01-3.14,1.43-.8,3.08-1.2,4.96-1.2,1.16,0,2.27.18,3.35.54,1.07.36,2.01.91,2.81,1.66.8.75,1.44,1.71,1.92,2.89.48,1.18.71,2.56.71,4.16v15.58h-4.6v-14.31c0-1.12-.15-2.09-.46-2.89-.31-.8-.72-1.45-1.23-1.94-.51-.49-1.1-.85-1.76-1.07-.66-.22-1.35-.33-2.07-.33-.95,0-1.84.15-2.66.46-.82.31-1.53.79-2.15,1.46-.61.66-1.09,1.51-1.43,2.53-.34,1.02-.51,2.23-.51,3.63v12.47h-4.6v-24.22Z"/>
  </g>
  <g>
    <path class="cls-1" d="M67.07,45.36c-1.31-1.94-3.13-3.59-5.3-4.81,3.62-12.35-8.76-20.86-19.21-14.37-8.83-9.23-22.37-3.03-22.05,9.45-12.45,2.92-13.68,18.11-2.84,23.82-3.62,12.35,8.76,20.86,19.21,14.37,8.83,9.23,22.38,3.03,22.05-9.45,8.55-1.82,13.41-11.59,8.14-19.01ZM67.91,52.51c0,.21-.01.41-.03.62,0,0,0,0,0,0-.38,5.37-5.24,9.37-10.34,10.18,1.49,11.99-12.7,18.65-20.43,8.78-9.89,7.28-22.38-1.64-17.82-13.3-2.07-1-3.86-2.36-5.26-4.14h0c-5.86-6.9-.63-16.92,7.87-17.95-1.04-12.48,12.17-18.52,20.43-8.78,10.06-7.12,22.2,1.22,17.82,13.3,4.09,1.93,7.37,5.7,7.74,10.28,0,0,0,0,0,0,.03.34.04.67.03,1.01Z"/>
    <path class="cls-1" d="M63.97,47.45c-1.31-1.95-3.38-3.54-5.8-4.47l-1.19-.46.53-1.16c2.01-4.44,1.3-9.17-1.77-11.76-1.64-1.39-3.75-2.03-6.1-1.87-2.35.16-4.75,1.15-6.78,2.79l-.99.8-.74-1.03c-2.84-3.96-7.29-5.71-11.08-4.35-2.02.73-3.63,2.23-4.67,4.34-1.03,2.11-1.38,4.69-.97,7.26l.2,1.26-1.27.12c-4.85.48-8.59,3.46-9.3,7.42-.38,2.11.11,4.26,1.43,6.21,1.31,1.95,3.38,3.54,5.8,4.47l1.19.46-.52,1.16c-2.01,4.44-1.3,9.17,1.77,11.77,1.64,1.39,3.75,2.03,6.09,1.87,2.35-.16,4.75-1.15,6.78-2.79l.99-.8.74,1.03c2.84,3.96,7.29,5.71,11.08,4.35,2.02-.73,3.64-2.23,4.67-4.34,1.03-2.11,1.38-4.69.97-7.26l-.2-1.26,1.27-.13c4.85-.48,8.59-3.46,9.3-7.42.08-.46.13-.93.13-1.39,0-1.65-.53-3.3-1.55-4.82ZM45.28,52.62c.45,1.59,1.3,3.34,2.56,5.55-2.17-1.23-3.9-2.08-5.46-2.53-1.06,1.74-1.82,4.07-2.64,7.38-.82-3.31-1.58-5.64-2.64-7.38-1.56.45-3.29,1.3-5.46,2.53,1.25-2.21,2.11-3.96,2.56-5.55-1.49-.99-3.43-1.74-6.05-2.55,2.63-.81,4.56-1.57,6.05-2.55-.45-1.59-1.3-3.34-2.56-5.55,2.17,1.23,3.9,2.08,5.46,2.53,1.06-1.74,1.82-4.07,2.64-7.38.82,3.31,1.58,5.64,2.64,7.38,1.56-.46,3.29-1.3,5.46-2.53-1.25,2.21-2.11,3.96-2.56,5.55,1.49.99,3.43,1.74,6.05,2.55-2.63.81-4.56,1.57-6.05,2.55Z"/>
  </g>
</svg>