<?xml version="1.0" encoding="UTF-8"?>
<svg id="Layer_1" data-name="Layer 1" xmlns="http://www.w3.org/2000/svg" viewBox="0 0 1080 1080">
  <defs>
    <style>
      .cls-1 {
        fill: #fff;
      }

      .cls-2 {
        fill: #7aceb5;
      }
    </style>
  </defs>
  <g id="_Radial_Repeat_" data-name="&amp;lt;Radial Repeat&amp;gt;">
    <g>
      <path class="cls-1" d="M666.62,1034.69c-64.07,0-127.59-30.11-175.79-82.98-39.23,24.88-82.5,39.54-125.77,42.53-5.35.37-10.75.56-16.07.56-50.03,0-97.39-16.68-133.36-46.96-66.43-55.91-88.97-150.89-58.79-244.31-41.3-21.37-75.7-51.3-99.91-87.04-31.46-46.45-43.65-100.4-34.32-151.91,15.46-85.16,86.91-152.04,183.4-172.75-2.04-46.23,6.82-90.82,25.83-129.59,24.74-50.35,65.63-87.81,115.14-105.5,21.23-7.58,43.57-11.43,66.39-11.43,64.1,0,127.63,30.11,175.81,82.97,39.24-24.88,82.5-39.55,125.75-42.53,5.35-.37,10.75-.56,16.05-.56,50.03,0,97.41,16.69,133.4,46.98,66.44,55.89,88.98,150.86,58.79,244.28,41.29,21.37,75.7,51.3,99.93,87.03,31.45,46.46,43.62,100.41,34.29,151.92-7.94,43.67-30.6,83.24-65.53,114.44-31.99,28.57-72.55,48.62-117.85,58.33,2.04,46.23-6.82,90.82-25.84,129.57-24.73,50.34-65.63,87.8-115.18,105.5-21.2,7.59-43.54,11.44-66.38,11.44Z"/>
      <path class="cls-2" d="M413.37,57.27c62.89,0,126.57,31.09,173.68,86.77,39.4-26.99,84.4-43.29,128.71-46.35,5.1-.35,10.18-.53,15.22-.53,47.35,0,91.5,15.42,125.63,44.15,65.41,55.03,85.08,149.88,51.78,241.2,43.22,20.46,79.91,51.06,104.74,87.68,29.69,43.86,41.2,94.69,32.43,143.12-7.62,41.93-29.62,78.98-61.73,107.67-32.12,28.69-74.36,49.03-122.46,57.51,3.8,47.45-4.52,94.35-23.99,134.03-23.34,47.52-61.86,82.85-108.44,99.49-20.24,7.24-41.23,10.73-62.31,10.73-62.86,0-126.55-31.1-173.67-86.77-39.43,27.01-84.43,43.29-128.73,46.35-5.1.35-10.19.53-15.23.53-47.33,0-91.47-15.4-125.6-44.13-65.41-55.05-85.08-149.9-51.78-241.22-43.22-20.46-79.91-51.06-104.72-87.68-29.71-43.86-41.23-94.69-32.45-143.12,15.22-83.83,88.01-148.18,184.22-165.16-3.8-47.45,4.52-94.35,23.99-134.06,23.34-47.5,61.83-82.85,108.4-99.49,20.25-7.23,41.25-10.73,62.33-10.73M413.37,33.36c-24.21,0-47.91,4.08-70.45,12.13-52.47,18.75-95.75,58.34-121.87,111.49-18.53,37.78-27.85,80.76-27.32,125.42-96.33,24.05-167.14,92.97-182.95,180.04-9.89,54.6,2.95,111.68,36.17,160.72,23.59,34.82,56.35,64.33,95.54,86.23-27.19,94.96-2.56,190.39,65.37,247.56,38.14,32.1,88.26,49.79,141.13,49.79,5.59,0,11.27-.2,16.89-.58,42.15-2.91,84.25-16.37,122.89-39.16,49.59,50.86,113.38,79.64,177.85,79.64,24.23,0,47.93-4.09,70.45-12.15,52.5-18.75,95.8-58.35,121.91-111.49,18.53-37.75,27.84-80.73,27.32-125.39,43.42-10.84,82.37-30.97,113.59-58.86,36.94-32.99,60.91-74.9,69.33-121.2,9.89-54.6-2.95-111.67-36.14-160.71-23.62-34.83-56.39-64.35-95.56-86.24,27.19-94.97,2.56-190.39-65.38-247.54-38.15-32.12-88.28-49.81-141.16-49.81-5.58,0-11.26.2-16.88.58-42.13,2.91-84.22,16.37-122.86,39.16-49.57-50.85-113.37-79.64-177.87-79.64h0Z"/>
    </g>
  </g>
  <g id="_Radial_Repeat_-2" data-name="&amp;lt;Radial Repeat&amp;gt;">
    <g>
      <path class="cls-2" d="M1024.26,609.47c-15,82.66-92.34,141.3-186.86,150.57,16.35,103.2-29.69,200.96-115.78,231.71-79.48,28.4-169.24-8.89-224.61-85.63-81.71,65.67-189.84,74.89-259.66,16.16-64.48-54.26-76.88-150.19-37.72-236.22-98.04-37.53-160.15-126.05-143.9-215.55,15-82.64,92.36-141.28,186.89-150.57-16.35-103.2,29.69-200.94,115.75-231.71,79.5-28.4,169.24,8.89,224.61,85.65,81.69-65.69,189.84-74.89,259.66-16.16,64.48,54.24,76.88,150.17,37.72,236.2,98.06,37.53,160.15,126.05,143.9,215.55Z"/>
      <path class="cls-1" d="M666.62,1022.73c-62.87,0-126.55-31.09-173.66-86.76-39.43,26.99-84.43,43.29-128.73,46.35-53.04,3.65-103.06-11.83-140.84-43.61-65.41-55.05-85.07-149.91-51.76-241.22-43.23-20.46-79.91-51.06-104.73-87.69-29.71-43.85-41.24-94.68-32.44-143.1,15.22-83.83,88.01-148.18,184.21-165.17-3.8-47.45,4.51-94.35,24-134.04,23.33-47.51,61.83-82.85,108.4-99.5,80.64-28.81,173.09,1.7,235.98,76.05,39.42-27,84.41-43.3,128.73-46.35,53.07-3.66,103.07,11.83,140.85,43.62,65.41,55.03,85.07,149.88,51.77,241.2,43.23,20.46,79.92,51.06,104.74,87.69,29.71,43.85,41.22,94.67,32.44,143.1h0c-15.22,83.86-88,148.21-184.19,165.18,3.8,47.45-4.51,94.35-24,134.04-23.34,47.52-61.85,82.85-108.43,99.49-20.24,7.23-41.24,10.73-62.32,10.73ZM501.24,875.07l13.36,18.51c51.22,70.99,131.48,102.3,199.71,77.92,36.44-13.01,65.55-39.94,84.18-77.88,18.61-37.9,24.85-84.15,17.54-130.23l-3.57-22.52,22.81-2.24c87.42-8.58,154.82-62.02,167.69-132.98h0c6.88-37.89-2.02-76.41-25.74-111.42-23.69-34.98-60.86-63.47-104.64-80.23l-21.39-8.19,9.45-20.76c36.22-79.58,23.37-164.34-31.98-210.9-29.55-24.86-67.58-36.46-109.91-33.54-42.31,2.92-85.7,20.68-122.17,50l-17.83,14.33-13.36-18.52c-51.21-71-131.47-102.32-199.71-77.94-36.42,13.02-65.53,39.95-84.15,77.88-18.61,37.9-24.84,84.15-17.54,130.23l3.57,22.51-22.81,2.24c-87.44,8.6-154.85,62.05-167.73,132.99-6.88,37.88,2.03,76.41,25.75,111.42,23.7,34.98,60.86,63.47,104.64,80.23l21.39,8.19-9.45,20.76c-36.22,79.58-23.37,164.34,31.98,210.93,29.55,24.86,67.56,36.46,109.89,33.53,42.31-2.92,85.7-20.68,122.19-50l17.82-14.32Z"/>
    </g>
  </g>
  <path class="cls-1" d="M640.39,586.98c8.1,28.45,23.46,59.86,46.08,99.51-39.16-22.09-70.32-37.24-98.52-45.39-19.16,31.27-32.86,72.96-47.6,132.31-14.76-59.35-28.46-101.04-47.62-132.31-28.2,8.15-59.35,23.28-98.52,45.37,22.62-39.66,38.01-71.07,46.08-99.49-26.92-17.69-61.81-31.27-109.14-45.8,47.36-14.51,82.24-28.09,109.17-45.78-8.1-28.45-23.46-59.86-46.11-99.51,39.16,22.09,70.32,37.22,98.52,45.39,19.16-31.27,32.86-72.96,47.62-132.34,14.76,59.38,28.46,101.07,47.6,132.34,28.2-8.18,59.35-23.31,98.52-45.39-22.62,39.66-37.98,71.07-46.08,99.51,26.9,17.69,61.78,31.27,109.14,45.78-47.36,14.53-82.24,28.11-109.14,45.8Z"/>
</svg>