<?xml version="1.0" encoding="UTF-8"?>
<svg id="Layer_1" data-name="Layer 1" xmlns="http://www.w3.org/2000/svg" viewBox="0 0 1080 1080">
  <defs>
    <style>
      .cls-1 {
        fill: #7aceb5;
      }
    </style>
  </defs>
  <path class="cls-1" d="M395.08,56.36c57.04,0,115.09,33.5,155.3,89.62l15.3,21.35,14.22,19.84,18.96-15.37,20.38-16.52c38.08-30.83,83.16-49.49,126.96-52.53,4.36-.3,8.73-.46,12.99-.46,18.61,0,36.29,2.9,52.55,8.62,16.09,5.66,30.82,14.1,43.79,25.09,55.43,46.94,67.69,133.73,30.5,215.98l-10.81,23.94-10.03,22.19,22.73,8.74,24.46,9.41c45.78,17.67,84.48,47.44,108.97,83.85,18.67,27.74,28.14,56.93,28.14,86.76,0,8.24-.75,16.55-2.22,24.7-12.91,71.54-81.85,125.56-171.58,134.43l-26.11,2.59-24.23,2.4,3.77,24.05,4.07,25.96c7.64,48.48,1.23,96.92-18.04,136.4-18.64,38.21-47.49,65.24-83.44,78.18-14.88,5.35-30.62,8.06-46.78,8.06-57.05,0-115.11-33.5-155.31-89.61l-15.3-21.35-14.22-19.84-18.96,15.37-20.37,16.51c-38.15,30.84-83.25,49.5-127,52.54-4.36.3-8.73.46-12.99.46-18.61,0-36.28-2.9-52.54-8.62-16.08-5.66-30.81-14.09-43.77-25.06-55.45-46.98-67.72-133.79-30.53-216.03l10.81-23.94,10.02-22.18-22.72-8.75-24.46-9.42c-45.75-17.63-84.44-47.41-108.96-83.85-23.74-35.25-32.7-73.79-25.91-111.45,12.91-71.51,81.87-125.53,171.6-134.43l26.11-2.59,24.26-2.41-3.81-24.08-4.1-25.89c-7.62-48.51-1.21-96.96,18.04-136.41,18.65-38.24,47.5-65.27,83.44-78.18,14.88-5.35,30.62-8.07,46.78-8.07M395.08,33.36c-18.53,0-36.91,3.07-54.57,9.43-41.71,14.98-75,46.03-96.33,89.74-21.3,43.66-28.42,96.96-20.09,150.06l4.1,25.92-26.11,2.59c-100.07,9.92-177.22,71.51-191.97,153.23-7.87,43.66,2.31,88.06,29.47,128.38,27.13,40.32,69.67,73.16,119.77,92.47l24.46,9.42-10.81,23.94c-41.46,91.7-26.74,189.37,36.62,243.05,30.39,25.72,68.56,39.13,111.17,39.13,4.81,0,9.68-.17,14.6-.51,48.43-3.36,98.09-23.83,139.86-57.6l20.39-16.53,15.3,21.35c45.35,63.31,110.61,99.21,174,99.21,18.52,0,36.9-3.07,54.56-9.42,41.71-15.01,75-46.03,96.33-89.74,21.32-43.69,28.45-96.98,20.09-150.06l-4.07-25.95,26.11-2.59c100.07-9.89,177.19-71.48,191.94-153.23,1.73-9.59,2.59-19.2,2.59-28.78,0-34.15-10.87-68.12-32.05-99.6-27.13-40.33-69.67-73.13-119.77-92.47l-24.49-9.42,10.81-23.94c41.46-91.69,26.77-189.34-36.59-243-30.39-25.74-68.59-39.16-111.2-39.16-4.81,0-9.68.17-14.6.51-48.43,3.36-98.09,23.8-139.83,57.6l-20.39,16.53-15.3-21.35c-45.35-63.3-110.61-99.22-173.99-99.22h0Z"/>
</svg>