<?xml version="1.0" encoding="UTF-8"?>
<svg id="Layer_1" data-name="Layer 1" xmlns="http://www.w3.org/2000/svg" viewBox="0 0 1080 1080">
  <defs>
    <style>
      .cls-1 {
        fill: #7aceb5;
      }
    </style>
  </defs>
  <path class="cls-1" d="M1033.02,456.8c-23.65-34.87-56.5-64.39-95.73-86.3C1002.71,149.04,779.09-3.73,590.39,112.75,430.91-52.84,186.26,58.45,192.14,282.26c-224.87,52.44-247.11,324.95-51.32,427.25-65.41,221.49,158.18,374.21,346.9,257.75,159.47,165.59,404.19,54.27,398.25-169.49,154.48-32.64,242.13-207.84,147.05-340.97ZM1048.36,584.96c-.07,3.7-.25,7.41-.55,11.1-.02.02,0,.05,0,.05-6.93,96.41-94.62,168.11-186.82,182.53,26.99,215.06-229.34,334.53-369.08,157.58-178.61,130.5-404.28-29.42-321.93-238.62-37.48-17.87-69.64-42.41-95.03-74.29v-.02c-105.87-123.76-11.33-303.52,142.17-321.91-18.72-223.9,219.79-332.27,369.06-157.58,181.67-127.68,400.93,21.81,321.93,238.62,73.87,34.71,133.19,102.24,139.73,184.47.02.02,0,.05,0,.05.47,6.02.69,12.01.53,18.04Z"/>
  <path class="cls-1" d="M977.08,494.21c-23.75-34.99-60.98-63.51-104.84-80.27l-21.43-8.2,9.49-20.76c36.27-79.63,23.41-164.45-32.06-211.04-29.6-24.88-67.7-36.48-110.11-33.56-42.39,2.92-85.86,20.69-122.39,50.04l-17.85,14.33-13.39-18.54c-51.3-71.04-131.71-102.37-200.06-77.98-36.49,13.04-65.65,39.97-84.32,77.93-18.64,37.91-24.88,84.2-17.58,130.31l3.59,22.53-22.86,2.22c-87.59,8.61-155.12,62.09-168.03,133.09-6.89,37.89,2.02,76.45,25.79,111.49,23.75,34.99,60.98,63.51,104.84,80.27l21.41,8.18-9.47,20.79c-36.27,79.63-23.41,164.45,32.06,211.06,29.6,24.88,67.68,36.48,110.09,33.53,42.39-2.92,85.86-20.67,122.42-50.02l17.85-14.33,13.39,18.51c51.3,71.04,131.71,102.37,200.06,77.98,36.51-13.01,65.68-39.97,84.34-77.93,18.64-37.91,24.88-84.2,17.56-130.31l-3.56-22.53,22.86-2.25c87.59-8.59,155.1-62.05,168.01-133.06,1.52-8.32,2.26-16.67,2.26-25,0-29.66-9.51-59.15-28.06-86.49ZM639.62,587.02c8.12,28.46,23.51,59.89,46.17,99.58-39.23-22.1-70.44-37.27-98.69-45.42-19.19,31.29-32.92,73-47.69,132.39-14.79-59.39-28.51-101.11-47.71-132.39-28.25,8.16-59.46,23.3-98.69,45.4,22.66-39.68,38.08-71.11,46.17-99.55-26.97-17.7-61.92-31.29-109.34-45.83,47.45-14.52,82.39-28.11,109.36-45.81-8.12-28.46-23.51-59.89-46.19-99.58,39.23,22.1,70.44,37.24,98.69,45.42,19.19-31.29,32.92-73,47.71-132.42,14.79,59.42,28.52,101.13,47.69,132.42,28.25-8.18,59.46-23.32,98.69-45.42-22.66,39.68-38.05,71.11-46.17,99.58,26.95,17.7,61.89,31.29,109.34,45.81-47.44,14.54-82.39,28.13-109.34,45.83Z"/>
</svg>